<svg width="59.006mm" height="20.913mm" version="1.1" viewBox="0 0 59.006 20.913" xmlns="http://www.w3.org/2000/svg">
  <g transform="translate(-71.616,-68.237)">
    <g fill="#000" stroke-width=".26458" aria-label="plebbit">
      <path d="m73.288 78.947q0-0.71967 0.14817-1.4393 0.16933-0.74083 0.52917-1.3335 0.381-0.61383 0.97367-0.99483t1.4393-0.381q0.86783 0 1.4393 0.381 0.59267 0.381 0.9525 0.99483 0.381 0.59267 0.52917 1.3335 0.16933 0.71967 0.16933 1.4393 0 0.71967-0.16933 1.4605-0.14817 0.71967-0.52917 1.3335-0.35983 0.59267-0.9525 0.97367-0.5715 0.381-1.4393 0.381-0.84667 0-1.4393-0.381-0.59267-0.381-0.97367-0.97367-0.35983-0.61383-0.52917-1.3335-0.14817-0.74083-0.14817-1.4605zm-1.6722 9.2075q0 0.46567 0.254 0.71967 0.254 0.27517 0.67733 0.27517t0.67733-0.27517q0.254-0.254 0.254-0.71967v-4.9742h0.04233q0.1905 0.254 0.46567 0.52917t0.65617 0.508q0.381 0.21167 0.84667 0.35983 0.48683 0.127 1.0372 0.127 1.143 0 2.032-0.46567 0.889-0.48683 1.5028-1.2912 0.635-0.80433 0.9525-1.8415t0.3175-2.159-0.3175-2.159q-0.3175-1.0372-0.9525-1.8415-0.61383-0.80433-1.5028-1.27-0.889-0.48683-2.032-0.48683-2.2013 0-3.0057 1.5452h-0.04233v-0.55033q0-0.46567-0.254-0.71967-0.254-0.27517-0.67733-0.27517t-0.67733 0.27517q-0.254 0.254-0.254 0.71967z"/>
      <path d="m85.176 69.232q0-0.46567-0.254-0.71967-0.254-0.27517-0.67733-0.27517t-0.67733 0.27517q-0.254 0.254-0.254 0.71967v14.478q0 0.46567 0.254 0.74083 0.254 0.254 0.67733 0.254t0.67733-0.254q0.254-0.27517 0.254-0.74083z"/>
      <path d="m95.804 79.667q0.61383 0 0.8255-0.254t0.21167-0.74083q0-1.016-0.33867-1.9897-0.3175-0.99483-0.93133-1.7568-0.61383-0.78317-1.524-1.2488-0.91017-0.48683-2.0532-0.48683-1.1853 0-2.1378 0.46567-0.93133 0.46567-1.5875 1.27-0.635 0.78317-0.99483 1.8415-0.33867 1.0372-0.33867 2.1802 0 1.1218 0.29633 2.159t0.93133 1.8415 1.6087 1.2912q0.97367 0.46567 2.3283 0.46567 0.8255 0 1.6298-0.23283t1.4393-0.5715q0.65617-0.35983 1.0372-0.762 0.40217-0.40217 0.40217-0.74083 0-0.40217-0.21167-0.61383-0.21167-0.21167-0.46567-0.21167t-0.55033 0.23283q-0.27517 0.23283-0.6985 0.52917-0.40217 0.27517-1.016 0.52917-0.61383 0.23283-1.5452 0.23283-0.78317 0-1.397-0.254-0.61383-0.27517-1.0583-0.74083-0.42333-0.46567-0.65617-1.0795-0.21167-0.635-0.21167-1.3547zm-7.0062-1.397q0.02117-0.635 0.1905-1.27 0.1905-0.635 0.5715-1.1218 0.381-0.508 0.97367-0.80433 0.59267-0.3175 1.4605-0.27517 0.762 0 1.3335 0.3175t0.93133 0.8255q0.35983 0.48683 0.52917 1.1007 0.1905 0.61383 0.1905 1.2277z"/>
      <path d="m100.37 78.947q0-0.71967 0.14817-1.4393 0.16933-0.74083 0.52917-1.3335 0.381-0.61383 0.97366-0.99483 0.59267-0.381 1.4393-0.381 0.86783 0 1.4393 0.381 0.59267 0.381 0.9525 0.99483 0.381 0.59267 0.52917 1.3335 0.16933 0.71967 0.16933 1.4393 0 0.71967-0.16933 1.4605-0.14817 0.71967-0.52917 1.3335-0.35983 0.59267-0.9525 0.97367-0.5715 0.381-1.4393 0.381-0.84667 0-1.4393-0.381-0.59266-0.381-0.97366-0.97367-0.35984-0.61383-0.52917-1.3335-0.14817-0.74083-0.14817-1.4605zm-1.6722 4.7625q0 0.46567 0.254 0.74083 0.254 0.254 0.67733 0.254t0.67733-0.254q0.254-0.27517 0.254-0.74083v-0.55033h0.0423q0.80433 1.5452 3.0057 1.5452 1.143 0 2.032-0.46567 0.889-0.48683 1.5028-1.2912 0.635-0.80433 0.9525-1.8415t0.3175-2.159-0.3175-2.159q-0.3175-1.0372-0.9525-1.8415-0.61384-0.80433-1.5028-1.27-0.889-0.48683-2.032-0.48683-0.55033 0-1.0372 0.14817-0.46567 0.127-0.84667 0.35983-0.381 0.21167-0.65617 0.48683-0.27516 0.27517-0.46566 0.52917h-0.0423v-5.4822q0-0.46567-0.254-0.71967-0.254-0.27517-0.67733-0.27517t-0.67733 0.27517q-0.254 0.254-0.254 0.71967z"/>
      <path d="m112.15 78.947q0-0.71967 0.14817-1.4393 0.16933-0.74083 0.52916-1.3335 0.381-0.61383 0.97367-0.99483t1.4393-0.381q0.86784 0 1.4393 0.381 0.59266 0.381 0.9525 0.99483 0.381 0.59267 0.52916 1.3335 0.16934 0.71967 0.16934 1.4393 0 0.71967-0.16934 1.4605-0.14816 0.71967-0.52916 1.3335-0.35984 0.59267-0.9525 0.97367-0.5715 0.381-1.4393 0.381-0.84666 0-1.4393-0.381t-0.97367-0.97367q-0.35983-0.61383-0.52916-1.3335-0.14817-0.74083-0.14817-1.4605zm-1.6722 4.7625q0 0.46567 0.254 0.74083 0.254 0.254 0.67734 0.254 0.42333 0 0.67733-0.254 0.254-0.27517 0.254-0.74083v-0.55033h0.0423q0.80434 1.5452 3.0057 1.5452 1.143 0 2.032-0.46567 0.889-0.48683 1.5028-1.2912 0.635-0.80433 0.9525-1.8415t0.3175-2.159-0.3175-2.159q-0.3175-1.0372-0.9525-1.8415-0.61383-0.80433-1.5028-1.27-0.889-0.48683-2.032-0.48683-0.55033 0-1.0372 0.14817-0.46566 0.127-0.84666 0.35983-0.381 0.21167-0.65617 0.48683-0.27517 0.27517-0.46567 0.52917h-0.0423v-5.4822q0-0.46567-0.254-0.71967-0.254-0.27517-0.67733-0.27517-0.42334 0-0.67734 0.27517-0.254 0.254-0.254 0.71967z"/>
      <path d="m124.04 74.185c0-0.31045-0.0847-0.55034-0.254-0.71967-0.16933-0.18345-0.39511-0.27517-0.67733-0.27517-0.28223 0-0.50801 0.09172-0.67734 0.27517-0.16933 0.16933-0.254 0.40922-0.254 0.71967v9.525c0 0.31045 0.0847 0.55739 0.254 0.74083 0.16933 0.16933 0.39511 0.254 0.67734 0.254 0.28222 0 0.508-0.08467 0.67733-0.254 0.16933-0.18345 0.254-0.43039 0.254-0.74083z"/>
      <path d="m127.07 73.317h-0.762q-0.93133 0-0.93133 0.80433t0.93133 0.80433h0.762v8.7842q0 0.46567 0.254 0.74083 0.254 0.254 0.67733 0.254 0.42334 0 0.67734-0.254 0.254-0.27517 0.254-0.74083v-8.7842h0.762q0.93133 0 0.93133-0.80433t-0.93133-0.80433h-0.762v-2.4342q0-0.46567-0.254-0.71967-0.254-0.27517-0.67734-0.27517-0.42333 0-0.67733 0.27517-0.254 0.254-0.254 0.71967z"/>
    </g>
  </g>
  <path d="m50.35 2.2862c0 0.32455 0.10583 0.59972 0.3175 0.8255 0.22577 0.21167 0.50094 0.3175 0.8255 0.3175 0.32455 0 0.59266-0.10583 0.80433-0.3175 0.22578-0.22578 0.33867-0.50095 0.33867-0.8255s-0.11289-0.59266-0.33867-0.80433c-0.21167-0.22578-0.47978-0.33867-0.80433-0.33867-0.32456 0-0.59973 0.11289-0.8255 0.33867-0.21167 0.21167-0.3175 0.47978-0.3175 0.80433z" fill="#a4a4a4" stroke-width=".26458"/>
</svg>

