<svg width="32" height="32" viewBox="0 0 32 32" fill="none" xmlns="http://www.w3.org/2000/svg">
<path d="M31.3707 17.2554L30.9976 16.9082C31.0242 16.2137 31.0242 15.4925 30.9709 14.798C30.891 13.783 30.6778 12.7679 30.3847 11.7796L30.7045 11.2454C31.0242 10.7112 31.0509 10.0701 30.8111 9.50918C29.8784 7.399 28.4394 5.47579 26.6806 3.95326C26.1743 3.49917 25.4548 3.36561 24.8152 3.60601L24.4421 3.73957C23.163 2.88481 21.7773 2.21703 20.3117 1.78965L20.1784 1.41569C19.9386 0.774624 19.4056 0.320534 18.7394 0.213689C17.407 0 16.048 -0.0534224 14.6889 0.0534224C14.2092 0.106845 13.6763 0.160267 13.17 0.267112C12.4771 0.400668 11.9175 0.90818 11.731 1.57596L11.6244 1.81636C10.1321 2.29716 8.71972 2.99165 7.44061 3.89983L7.04089 3.76628C6.40133 3.55259 5.70848 3.71285 5.20216 4.16694C3.73651 5.5025 2.53735 7.10518 1.65796 8.86811C1.39147 9.42905 1.39147 10.0701 1.6846 10.6043L1.97773 11.1386C1.52472 12.4207 1.25823 13.7563 1.17829 15.1185L0.805215 15.3856C0.272252 15.7596 -0.0475264 16.374 0.00576997 17.0417V17.1486C0.00576997 17.2554 0.00576997 17.3623 0.0324181 17.4691C0.218955 19.7129 0.858512 21.8498 1.95109 23.7997C2.27086 24.3606 2.83048 24.7346 3.47003 24.7613L3.97635 24.788C4.58926 25.6427 5.28211 26.4174 6.05491 27.1119L6.02826 27.6461C6.00161 28.2871 6.29474 28.9015 6.8277 29.2755C8.77302 30.6377 10.9315 31.5459 13.2766 31.9733C13.3832 32 13.4897 32 13.5963 32C14.0494 32 14.5024 31.8397 14.8488 31.5192L15.4084 31.0117C16.0746 31.0384 16.7408 31.0384 17.407 30.985C17.5403 30.985 17.7002 30.9583 17.86 30.9316L18.473 31.4124C18.926 31.7596 19.5122 31.8932 20.0718 31.7596C22.0438 31.2521 23.9092 30.3973 25.5614 29.1953C26.041 28.8481 26.3342 28.2871 26.3342 27.6728V27.005C27.1603 26.2304 27.9064 25.3489 28.546 24.3873L29.2921 24.227C29.8517 24.1202 30.3314 23.7462 30.5979 23.212C31.2641 21.8765 31.7171 20.4341 31.9836 18.9649C32.0635 18.3239 31.8503 17.6828 31.3707 17.2554Z" fill="black"/>
<path d="M25.4547 5.34209L20.3116 7.21188L18.4463 2.0032C17.2737 1.81622 16.0746 1.7628 14.8488 1.86964C14.3957 1.89635 13.9427 1.97649 13.5163 2.05662L11.9441 7.34543L6.48123 5.55578C5.20212 6.73108 4.10954 8.14677 3.33674 9.72273L5.81502 14.2369L1.87109 16.9615C1.87109 17.095 1.87109 17.2019 1.89774 17.3354C2.05763 19.3388 2.67054 21.2352 3.57658 22.9181L8.10677 23.1852L7.89358 27.7528C9.57242 28.9281 11.5177 29.7561 13.5963 30.1301L16.5009 27.5124L19.5921 29.9164C21.3776 29.4623 23.0031 28.6877 24.4421 27.6459V23.2653L28.8923 22.3571C29.4786 21.1818 29.8783 19.9264 30.1182 18.5908L26.2275 15.0917L29.1055 10.257C28.2528 8.36046 27.0003 6.67765 25.4547 5.34209Z" fill="#D6B667"/>
<path d="M16.1011 29.1418C23.3126 29.1418 29.1587 23.2939 29.1587 16.0801C29.1587 8.86626 23.3126 3.01831 16.1011 3.01831C8.88955 3.01831 3.04346 8.86626 3.04346 16.0801C3.04346 23.2939 8.88955 29.1418 16.1011 29.1418Z" fill="#EFD789"/>
<path d="M26.6806 18.591C26.9471 17.4958 27.027 16.3205 26.9204 15.1452C26.8138 14.0768 26.574 13.0617 26.2009 12.1001C26.2276 12.0467 26.2276 12.02 26.2542 11.9666C26.6273 10.7379 25.9344 8.97493 24.4421 7.42568C22.8699 5.7963 20.9779 5.04838 19.752 5.5559C19.6454 5.60932 19.5389 5.66274 19.4323 5.71616C18.0732 5.28878 16.6342 5.10181 15.1419 5.23536C9.14607 5.76959 4.72247 11.0317 5.25544 17.0417C5.46862 19.4991 6.48125 21.6895 8.0002 23.3723C7.97355 23.7996 8.10679 24.3339 8.58646 24.9749C9.06613 25.5893 9.81227 26.1769 10.665 26.631C11.5977 27.1118 12.5304 27.3522 13.3298 27.3522C13.6763 27.3522 13.9694 27.2988 14.2625 27.2187C14.5024 27.1385 14.6889 27.0317 14.8754 26.8981C15.5683 26.9783 16.2878 26.9783 17.0073 26.9248C18.0732 26.818 19.0858 26.5776 20.0452 26.2036C20.3117 26.2571 20.5515 26.2838 20.8446 26.2838C22.0971 26.2838 23.5361 25.7496 24.7885 24.7345C26.121 23.6394 27.0003 22.1435 27.1336 20.7279C27.2402 19.9265 27.0536 19.1786 26.6806 18.591Z" fill="#F4ECBE"/>
<path d="M9.35948 22.6777C10.0523 22.3839 11.2515 22.5709 12.4507 23.1852C13.7298 23.8263 14.6092 24.7879 14.6891 25.5358C14.7158 25.7228 14.6891 25.8831 14.6092 26.0166C14.2361 26.7645 12.6372 26.7378 11.0383 25.9098C9.46607 25.1085 8.48009 23.853 8.87981 23.0784C8.9864 22.9181 9.14629 22.7846 9.35948 22.6777Z" fill="#C19C59"/>
<path d="M25.5082 11.7262C25.4549 11.9132 25.375 12.0468 25.2417 12.1803C24.4689 12.9282 22.6302 12.2605 21.1113 10.6845C19.5923 9.10853 18.9794 7.23875 19.7522 6.49084C19.8588 6.4107 19.9654 6.33057 20.072 6.27715C20.9514 5.9299 22.5503 6.59768 23.8827 7.98666C25.1618 9.29551 25.7747 10.8448 25.5082 11.7262Z" fill="#C19C59"/>
<path d="M25.215 18.2706C25.4548 18.4041 25.668 18.5911 25.8546 18.8048C26.9471 20.1403 26.2543 22.5176 24.309 24.1203C22.3637 25.723 19.8854 25.9634 18.7928 24.6278C18.6596 24.4676 18.553 24.2806 18.473 24.0936C17.8868 22.7313 18.6329 20.7013 20.3384 19.3123C21.9639 17.95 23.9625 17.5761 25.215 18.2706Z" fill="#C19C59"/>
<path d="M13.0367 8.36073C13.4631 8.44086 13.8628 8.60113 14.2626 8.78811C16.6875 10.0702 17.5403 13.2222 16.1546 15.8399C14.7689 18.4576 11.7043 19.526 9.27934 18.2439C8.98621 18.0836 8.71973 17.8966 8.45325 17.7096C6.66782 16.2138 6.16151 13.516 7.38732 11.2188C8.53319 9.0018 10.8782 7.90664 13.0367 8.36073Z" fill="#C19C59"/>
<path d="M9.62573 22.6245C9.89221 23.2923 10.6917 24.0402 11.7576 24.6011C12.8235 25.1353 13.8894 25.349 14.5823 25.1888C14.3158 24.521 13.5164 23.7731 12.4504 23.2121C11.3845 22.6512 10.3452 22.4642 9.62573 22.6245Z" fill="#A07F44"/>
<path d="M19.4324 7.63944C19.5123 8.52091 20.1252 9.66949 21.1112 10.6845C22.2304 11.8331 23.5095 12.5009 24.4422 12.4742C24.3623 11.5927 23.7494 10.4441 22.7634 9.42909C21.6175 8.28051 20.3384 7.61273 19.4324 7.63944Z" fill="#A07F44"/>
<path d="M20.3383 19.2854C18.926 20.4607 18.1798 22.0367 18.2864 23.3188C19.4856 23.5325 21.0312 23.0784 22.3103 22.0099C23.7226 20.8347 24.4688 19.2587 24.3622 17.9766C23.163 17.7629 21.6441 18.217 20.3383 19.2854Z" fill="#A07F44"/>
<path d="M16.1281 15.8398C17.0074 14.1837 16.9808 12.2872 16.208 10.8181C14.0761 10.364 11.7311 11.4858 10.5852 13.6494C9.70585 15.3055 9.7325 17.202 10.5053 18.6711C12.6371 19.1252 14.9822 18.0301 16.1281 15.8398Z" fill="#A07F44"/>
</svg>
